# xmcd CD database file
#
# Track frame offsets:
#	150
#	21199
#	45860
#	63880
#	82940
#	102592
#	117619
#	134987
#	151444
#	172844
#	191357
#
# Disc length: 2801 seconds
#
# Revision: 0
# Processed by: cddbd v1.5.2PL0 Copyright (c) Steve Scherf et al.
# Submitted via: CDex 1.70
#
DISCID=8c0aef0b
DTITLE=Timberline - Timberline
DYEAR=2015
DGENRE=Country
TTITLE0=Lay Your Love On Me
TTITLE1=Wastet Love
TTITLE2=Weekend
TTITLE3=Better Days
TTITLE4=Street To Your Heart
TTITLE5=Jukebox Romeo
TTITLE6=Barbeque Night
TTITLE7=Rider's Bride
TTITLE8=Came Along
TTITLE9=Smile and Kiss
TTITLE10=Rock This Party
EXTD=YEAR: 2015
EXTT0=
EXTT1=
EXTT2=
EXTT3=
EXTT4=
EXTT5=
EXTT6=
EXTT7=
EXTT8=
EXTT9=
EXTT10=
PLAYORDER=
